<svg id="visual" viewBox="0 0 900 600" width="900" height="600" xmlns="http://www.w3.org/2000/svg" xmlns:xlink="http://www.w3.org/1999/xlink" version="1.1"><path d="M0 61L82 43L164 37L245 67L327 43L409 79L491 43L573 37L655 43L736 49L818 67L900 49L900 0L818 0L736 0L655 0L573 0L491 0L409 0L327 0L245 0L164 0L82 0L0 0Z" fill="#00cc8e"></path><path d="M0 133L82 163L164 139L245 169L327 109L409 163L491 151L573 85L655 97L736 163L818 163L900 139L900 47L818 65L736 47L655 41L573 35L491 41L409 77L327 41L245 65L164 35L82 41L0 59Z" fill="#00b98a"></path><path d="M0 397L82 259L164 379L245 307L327 223L409 301L491 391L573 361L655 247L736 259L818 253L900 355L900 137L818 161L736 161L655 95L573 83L491 149L409 161L327 107L245 167L164 137L82 161L0 131Z" fill="#00a784"></path><path d="M0 547L82 529L164 529L245 523L327 439L409 505L491 529L573 529L655 457L736 523L818 535L900 541L900 353L818 251L736 257L655 245L573 359L491 389L409 299L327 221L245 305L164 377L82 257L0 395Z" fill="#00957c"></path><path d="M0 601L82 601L164 601L245 601L327 601L409 601L491 601L573 601L655 601L736 601L818 601L900 601L900 539L818 533L736 521L655 455L573 527L491 527L409 503L327 437L245 521L164 527L82 527L0 545Z" fill="#038373"></path></svg>